/* XPM */
static char *foo[] = {
"84 48 2 1",
"X c black",
"  c white",
"                                                         XXXXXX                     ",
"                                                       XXXXXXXXXX                   ",
"                                                      XXXXXXXXXXXX                  ",
"                                                     XX XX XX XX XX                 ",
"                                                    XXXXXXXXXXXXXXXX                ",
"                                                      XXX  XX  XXX                  ",
"                                                       X        X                   ",
"           X   X                 XX                  XX                  XX         ",
"        X   X X   X             XXXX                XXXX                XXXX        ",
"         X       X             XXXXXX              XXXXXX              XXXXXX       ",
"          X     X             XX XX XX            XX XX XX            XX XX XX      ",
"       XX         XX          XXXXXXXX            XXXXXXXX            XXXXXXXX      ",
"          X     X              X XX X              X XX X              X XX X       ",
"         X  X X  X            X      X            X      X            X      X      ",
"        X  X   X  X            X    X              X    X              X    X       ",
"                                                                                    ",
"                                                                                    ",
"                               XX                                                   ",
"                               XX                                                   ",
"                               XX                                                   ",
"                               XX                                                   ",
"                               XX                                                   ",
"        XX                     XX                                                   ",
"        XX                     XX                                                   ",
"        XX                                                                          ",
"        XX                     XX                                                   ",
"        XX                     XX                                                   ",
"        XX                     XX                                                   ",
"        XX                     XX                                                   ",
"                               XX                                                   ",
"                                                                                    ",
"                                                                                    ",
"                                                                                    ",
"                                                                                    ",
"                                                                                    ",
"                                                                                    ",
"                                                                                    ",
"                                                                                    ",
"                                                                                    ",
"                                                                                    ",
"        XX                                                                          ",
"       XXXX                                                                         ",
"       XXXX                                                                         ",
"   XXXXXXXXXXXX                                                                     ",
"  XXXXXXXXXXXXXX                                                                    ",
"  XXXXXXXXXXXXXX                                                                    ",
"  XXXXXXXXXXXXXX                                                                    ",
"                                                                                    ",
};
