/* XPM */
static char *foo[] = {
"84 48 2 1",
"X c black",
"  c white",
"                                                                                    ",
"                                                                                    ",
"                                                                                    ",
"                                                                                    ",
"                                                                                    ",
"                                                                                    ",
"                                                                                    ",
"                                                                                    ",
"                                                                                    ",
"                                                                                    ",
"        XXX                  XX                  XX                  XX             ",
"        XXXX                XXXX                XXXX                XXXX            ",
"       XXXXXX              XXXXXX              XXXXXX              XXXXXX           ",
"      XXXXX XX            XX XX XX            XX XX XX            XX XX XX          ",
"      XXXXXXXX            XXXXXXXX            XXXXXXXX            XXXXXXXX          ",
"       XXX  X              X    X              X    X              X    X           ",
"      X XXXX X            X XXXX X            X XXXX X            X XXXX X          ",
"     X X    X X          X X    X X          X X    X X          X X    X X         ",
"                                                                                    ",
"                                                                                    ",
"        XX                  XXXX                XXXX                XXXX            ",
"        XX               XXXXXXXXXX          XXXXXXXXXX          XXXXXXXXXX         ",
"        XX              XXXXXXXXXXXX        XXXXXXXXXXXX        XXXXXXXXXXXX        ",
"        XX              XXX  XX  XXX        XXX  XX  XXX        XXX  XX  XXX        ",
"        XX              XXXXXXXXXXXX        XXXXXXXXXXXX        XXXXXXXXXXXX        ",
"        XX                XXX  XXX            XXX  XXX            XXX  XXX          ",
"        XX               XX  XX  XX          XX  XX  XX          XX  XX  XX         ",
"                          XX   XXX            XX    XX            XX    XX          ",
"                               XX                                                   ",
"                               XX                                                   ",
"        XX                     XX                                                   ",
"        XX                                                                          ",
"        XX                     XX                                                   ",
"        XX                     XX                                                   ",
"        XX                     XX                                                   ",
"        XX                     XX                                                   ",
"        XX                     XX                                                   ",
"                               XX                                                   ",
"                               XX                                                   ",
"                                                                                    ",
"        XX                     XX                                                   ",
"       XXXX                    XX                                                   ",
"       XXXX                    XX                                                   ",
"   XXXXXXXXXXXX                XX                                                   ",
"  XXXXXXXXXXXXXX               XX                                                   ",
"  XXXXXXXXXXXXXX                                                                    ",
"  XXXXXXXXXXXXXX                                                                    ",
"                                                                                    ",
};
