/* XPM */
static char *foo[] = {
"84 48 2 1",
"X c black",
"  c white",
"                           XXXXXX                                                   ",
"                         XXXXXXXXXX                                                 ",
"                        XXXXXXXXXXXX                                                ",
"                       XX XX XX XX XX                                               ",
"        XX            XXXXXXXXXXXXXXXX                                              ",
"        XX              XXX  XX  XXX                                                ",
"        XX               X        X                                                 ",
"        XX                                                                          ",
"        XX                                                                          ",
"        XX                                                                          ",
"        XX                                                                          ",
"                                                                                    ",
"                                                                                    ",
"        XX                                                                          ",
"        XX                                                                          ",
"        XX                                                                          ",
"        XX                                                                          ",
"        XX                                                                          ",
"        XX                                                                          ",
"        XX                                                                          ",
"                                                                                    ",
"                                                                                    ",
"             XX                  XX                  XX                  XX         ",
"        XX  XXXX                XXXX                XXXX                XXXX        ",
"        XX XXXXXX              XXXXXX              XXXXXX              XXXXXX       ",
"        XXXX XX XX            XX XX XX            XX XX XX            XX XX XX      ",
"        XXXXXXXXXX            XXXXXXXX            XXXXXXXX            XXXXXXXX      ",
"        XX X XX X              X XX X              X XX X              X XX X       ",
"        XXX      X            X      X            X      X            X      X      ",
"        XX X    X              X    X              X    X              X    X       ",
"                                                                                    ",
"                                                                                    ",
"                                XXXX                XXXX                XXXX        ",
"                             XXXXXXXXXX          XXXXXXXXXX          XXXXXXXXXX     ",
"                            XXXXXXXXXXXX        XXXXXXXXXXXX        XXXXXXXXXXXX    ",
"                            XXX  XX  XXX        XXX  XX  XXX        XXX  XX  XXX    ",
"                            XXXXXXXXXXXX        XXXXXXXXXXXX        XXXXXXXXXXXX    ",
"                              XXX  XXX            XXX  XXX            XXX  XXX      ",
"                             XX  XX  XX          XX  XX  XX          XX  XX  XX     ",
"                              XX    XX            XX    XX            XX    XX      ",
"        XX                                                                          ",
"       XXXX                                                                         ",
"       XXXX                                                                         ",
"   XXXXXXXXXXXX                                                                     ",
"  XXXXXXXXXXXXXX                                                                    ",
"  XXXXXXXXXXXXXX                                                                    ",
"  XXXXXXXXXXXXXX                                                                    ",
"                                                                                    ",
};
