/* XPM */
static char *foo[] = {
"84 48 2 1",
"X c black",
"  c white",
"                                                                   XXXXXX           ",
"                                                                 XXXXXXXXXX         ",
"                                                                XXXXXXXXXXXX        ",
"                                                               XX XX XX XX XX       ",
"                                                              XXXXXXXXXXXXXXXX      ",
"         XX                  XX                  XX             XXX  XX  XXX        ",
"        XXXX                XXXX                XXXX             X        X         ",
"       XXXXXX              XXXXXX              XXXXXX              XXXXXX           ",
"      XX XX XX            XX XX XX            XX XX XX            XX XX XX          ",
"      XXXXXXXX            XXXXXXXX            XXXXXXXX            XXXXXXXX          ",
"       X    X              X    X              X    X              X    X           ",
"      X   XX X            X XXXX X            X XXXX X            X XXXX X          ",
"     X XXX  X X          X X    X X          X X    X X          X X    X X         ",
"        XX                                                                          ",
"        XX                                                                          ",
"        XX                       XX                                                 ",
"        XX                       XX                                                 ",
"        XX                       XX                                                 ",
"        XX                       XX                                                 ",
"                                 XX                                                 ",
"                                 XX                                                 ",
"                                 XX                                                 ",
"                                                                                    ",
"        XX                                                                          ",
"        XX                                                                          ",
"        XX                                                                          ",
"        XX                                                                          ",
"        XX                                                                          ",
"        XX                                                                          ",
"        XX                                                                          ",
"                                                                                    ",
"                                                                                    ",
"                                                                                    ",
"                                                                                    ",
"                                                                                    ",
"                                                                                    ",
"                                                                                    ",
"                                                                                    ",
"                                                                                    ",
"                                                                                    ",
"        XX                                                                          ",
"       XXXX                                                                         ",
"       XXXX                                                                         ",
"   XXXXXXXXXXXX                                                                     ",
"  XXXXXXXXXXXXXX                                                                    ",
"  XXXXXXXXXXXXXX                                                                    ",
"  XXXXXXXXXXXXXX                                                                    ",
"                                                                                    ",
};
