/* XPM */
static char *foo[] = {
"84 48 2 1",
"X c black",
"  c white",
"                                                                XXXXXX              ",
"                                                              XXXXXXXXXX            ",
"                                                             XXXXXXXXXXXX           ",
"                                                            XX XX XX XX XX          ",
"                                                           XXXXXXXXXXXXXXXX         ",
"                                   XX                  XX    XXX  XX  XXX           ",
"                                  XXXX                XXX     X        X     X      ",
"                                 XXXXXX              XXXXXX              XXXXXX     ",
"                                XX XX XX            XX XX XX            XX XX XX    ",
"                                XXXXXXXX            XXXXXXXX            XXXXXXXX    ",
"                                 X XX X              X XX X              X XX X     ",
"                                X      X            X      X            X      X    ",
"                                 X    X              X    X              XX   X     ",
"                                                                         XX         ",
"                                                                         XX         ",
"                                                                         XX         ",
"                                                                         XX         ",
"                                                                         XX         ",
"                                 XX                                      XX         ",
"                                 XX                                                 ",
"        XX                       XX                                                 ",
"        XX                       XX                                                 ",
"        XX                       XX                                                 ",
"        XX                       XX                                                 ",
"        XX                       XX                                                 ",
"        XX                                                                          ",
"        XX                                                                          ",
"                                                                                    ",
"                                                                                    ",
"        XX                                                                          ",
"        XX                                                                          ",
"        XX                                                                          ",
"        XX                                                                          ",
"        XX                                                                          ",
"        XX                                                                          ",
"        XX                                                                          ",
"                                                                                    ",
"                                                                                    ",
"                                                                                    ",
"                                                                                    ",
"                                       XX                                           ",
"                                      XXXX                                          ",
"                                      XXXX                                          ",
"                                  XXXXXXXXXXXX                                      ",
"                                 XXXXXXXXXXXXXX                                     ",
"                                 XXXXXXXXXXXXXX                                     ",
"                                 XXXXXXXXXXXXXX                                     ",
"                                                                                    ",
};
