/* XPM */
static char *foo[] = {
"84 48 2 1",
"X c black",
"  c white",
"                                                     XXXXXX                         ",
"                                                   XXXXXXXXXX                       ",
"                                                  XXXXXXXXXXXX                      ",
"                                                 XX XX XX XX XX                     ",
"                                                XXXXXXXXXXXXXXXX                    ",
"                                                  XXX  XX  XXX                      ",
"           X   X                 XX                X        X                       ",
"        X   X X   X             XXXX                XXXX                            ",
"                 X             XXXXXX              XXXXXX                           ",
"        XXX     X             XX XX XX            XX XX XX                          ",
"       XXX        XX          XXXXXXXX            XXXXXXXX                          ",
"        XXX     X              X    X              X    X                           ",
"        XX  X X  X            X XXXX X            X XXXX X                          ",
"        XX X   X  X          X X    X X          X X    X X                         ",
"        XX                                                                          ",
"        XX                                                                          ",
"                                                             XX                     ",
"                                                             XX                     ",
"        XX                                                   XX                     ",
"        XX                                                   XX                     ",
"        XX                                                   XX                     ",
"        XX                                                   XX                     ",
"        XX                                                   XX                     ",
"        XX                                                               XX         ",
"        XX                                                               XX         ",
"                                                                         XX         ",
"                                                                         XX         ",
"                                                                         XX         ",
"                                       XX                                XX         ",
"                                 XX    XX                                XX         ",
"                                 XX    XX                                           ",
"                                 XX    XX                                           ",
"                                 XX    XX                                           ",
"                                 XX    XX                                           ",
"                                 XX    XX                                           ",
"                                 XX                                                 ",
"                                                                                    ",
"                                                                                    ",
"                                                                                    ",
"                                                                                    ",
"                                       XX                                           ",
"                                      XXXX                                          ",
"                                      XXXX                                          ",
"                                  XXXXXXXXXXXX                                      ",
"                                 XXXXXXXXXXXXXX                                     ",
"                                 XXXXXXXXXXXXXX                                     ",
"                                 XXXXXXXXXXXXXX                                     ",
"                                                                                    ",
};
