/* XPM */
static char *foo[] = {
"84 48 2 1",
"X c black",
"  c white",
"                                                                                    ",
"                                                                                    ",
"                                                                                    ",
"                                                                                    ",
"                                                                                    ",
"                                                                                    ",
"                                                                                    ",
"                                                                                    ",
"           X   X                 XX                  XX                             ",
"        X   X X   X             XXXX                XXXX                            ",
"         X       X             XXXXXX              XXXXXX                           ",
"          X     X             XX XX XX            XX XX XX                          ",
"       XX         XX          XXXXXXXX            XXXXXXXX                          ",
"          X     X              X    X              X    X                           ",
"         X  X X  X            X XXXX X            X XXX  X                          ",
"        X  X   X  X          X X    X X          X X   XX X                         ",
"                                                       XX                           ",
"                                                       XX                           ",
"                                                       XX                           ",
"                                                       XX                           ",
"        XX                                             XX                           ",
"        XX                                             XX                           ",
"        XX                                                                          ",
"        XX                                                             XX           ",
"        XX                                                             XX           ",
"        XX                                                             XX           ",
"        XX                                                             XX           ",
"                                                                       XX           ",
"                                                                       XX           ",
"                               XX                                      XX           ",
"                               XX      XX                                           ",
"                               XX      XX                                           ",
"                               XX      XX                                           ",
"                               XX      XX                                           ",
"                               XX      XX                                           ",
"                               XX      XX                                           ",
"                                       XX                                           ",
"                               XX                                                   ",
"                               XX                                                   ",
"                               XX                                                   ",
"                               XX      XX                                           ",
"                               XX     XXXX                                          ",
"                                      XXXX                                          ",
"                                  XXXXXXXXXXXX                                      ",
"                                 XXXXXXXXXXXXXX                                     ",
"                                 XXXXXXXXXXXXXX                                     ",
"                                 XXXXXXXXXXXXXX                                     ",
"                                                                                    ",
};
