/* XPM */
static char *foo[] = {
"84 48 2 1",
"X c black",
"  c white",
"                                                                  XXXXXX            ",
"                                                                XXXXXXXXXX          ",
"                                                               XXXXXXXXXXXX         ",
"                                                              XX XX XX XX XX        ",
"                                                             XXXXXXXXXXXXXXXX       ",
"                                                               XXX  XX  XXX         ",
"                                                                X        X          ",
"                                                                                    ",
"               XX                  XX                                               ",
"              XXXX                XXXX                                              ",
"             XXXXXX              XXXXXX                                             ",
"        XX  XX XX XX            XX XX XX                                            ",
"        XX  XXXXXXXX            XXXXXXXX                                            ",
"        XX   X    X              X    X                                             ",
"        XX  X XXXX X            X XXXX X                                            ",
"        XX X X    X X          X X    X                                             ",
"        XX                             XX                                           ",
"        XX                             XX                                           ",
"                                       XX                                           ",
"                                       XX                                           ",
"                                       XX                                           ",
"                                       XX                                           ",
"        XX                             XX                                           ",
"        XX                                                                          ",
"        XX                                                                          ",
"        XX                                                                          ",
"        XX                                                                          ",
"        XX                                                                          ",
"        XX                                                                          ",
"                                                                                    ",
"                                                                                    ",
"        XX                                                                          ",
"        XX                                                                          ",
"        XX                                                                          ",
"        XX                                                                          ",
"        XX                                                                          ",
"        XX                                                                          ",
"        XX                                                                          ",
"                                                                                    ",
"                                                                                    ",
"        XX                                                                          ",
"       XXXX                                                                         ",
"       XXXX                                                                         ",
"   XXXXXXXXXXXX                                                                     ",
"  XXXXXXXXXXXXXX                                                                    ",
"  XXXXXXXXXXXXXX                                                                    ",
"  XXXXXXXXXXXXXX                                                                    ",
"                                                                                    ",
};
