/* XPM */
static char *foo[] = {
"84 48 2 1",
"X c black",
"  c white",
"                                                             XXXXXX                 ",
"                                                           XXXXXXXXXX               ",
"                                                          XXXXXXXXXXXX              ",
"                                                         XX XX XX XX XX             ",
"                                                        XXXXXXXXXXXXXXXX            ",
"                                                          XXX  XX  XXX              ",
"                                                           X        X               ",
"                                                                                    ",
"                         XX                                                         ",
"                        XXXX                                                        ",
"                       XXXXXX                                                       ",
"                      XX XX XX                                                      ",
"                      XXXXXXXX                                                      ",
"                       X XX X                                                       ",
"                      X      X                                                      ",
"                       X    X                                                       ",
"                                                                                    ",
"        XX                                                                          ",
"        XX                                                                          ",
"        XX                                                                          ",
"        XX                                                                          ",
"        XX                             XX                                           ",
"        XX                             XX                                           ",
"        XX                             XX                                           ",
"                                       XX                                           ",
"                                       XX                                           ",
"        XX                             XX                                           ",
"        XX                             XX                                           ",
"        XX                                                                          ",
"        XX                                                                          ",
"        XX                                                                          ",
"        XX                                                                          ",
"        XX                                                                          ",
"                                                                                    ",
"                                                                       XX           ",
"                                                                       XX           ",
"                                                                       XX           ",
"                                                                       XX           ",
"     X   X                                                             XX           ",
"  X   X X   X                                                          XX           ",
"   X       X                                                           XX           ",
"    X     X                                                                         ",
" XX         XX                                                                      ",
"    X     X                                                                         ",
"   X  X X  X                                                                        ",
"  X  X   X  X                                                                       ",
"                                                                                    ",
"                                                                                    ",
};
