/* XPM */
static char *foo[] = {
"84 48 2 1",
"X c black",
"  c white",
"                                                           XXXXXX                   ",
"                                                         XXXXXXXXXX                 ",
"                                                        XXXXXXXXXXXX                ",
"                                                       XX XX XX XX XX               ",
"                                                      XXXXXXXXXXXXXXXX              ",
"                                                        XXX  XX  XXX                ",
"                                                         X        X                 ",
"                                                                                    ",
"                     XX                                                             ",
"                    XXXX                                                            ",
"                   XXXXXX                                                           ",
"                  XX XX XX                                                          ",
"                  XXXXXXXX                                                          ",
"                   X XX X                                                           ",
"                  X      X                                                          ",
"        XX         X   XX                                                           ",
"        XX             XX                                                           ",
"        XX             XX                                                           ",
"        XX             XX                                                           ",
"        XX             XX                                                           ",
"        XX             XX                                                           ",
"        XX             XX                                                           ",
"                                                                                    ",
"                                       XX                                           ",
"        XX                             XX                                           ",
"        XX                             XX                                           ",
"        XX                             XX                                           ",
"        XX                             XX                                           ",
"        XX                             XX                                           ",
"        XX                             XX                                           ",
"        XX                                                                          ",
"                                                                                    ",
"                                                                                    ",
"                                                                                    ",
"                                                                                    ",
"                                                                                    ",
"                                                                                    ",
"                                                                                    ",
"                                                                                    ",
"                                                                                    ",
"        XX                                                                          ",
"       XXXX                                                                         ",
"       XXXX                                                                         ",
"   XXXXXXXXXXXX                                                                     ",
"  XXXXXXXXXXXXXX                                                                    ",
"  XXXXXXXXXXXXXX                                                                    ",
"  XXXXXXXXXXXXXX                                                                    ",
"                                                                                    ",
};
