/* XPM */
static char *foo[] = {
"84 48 2 1",
"X c black",
"  c white",
"                                   XXXXXX                                           ",
"        XX                       XXXXXXXXXX                                         ",
"        XX                      XXXXXXXXXXXX                                        ",
"        XX                     XX XX XX XX XX                                       ",
"        XX                    XXXXXXXXXXXXXXXX                                      ",
"        XX                      XXX  XX  XXX                                        ",
"        XX                       X        X                                         ",
"        XX                                                                          ",
"                                                                                    ",
"                                                                                    ",
"                               XX                                                   ",
"                              XXXX                                                  ",
"                             XXXXXX                                                 ",
"                            XX XX XX                                                ",
"                            XXXXXXXX                                                ",
"                             X    X                                                 ",
"                            X XXXX X                                                ",
"                           X X    X X                                               ",
"                                                                                    ",
"                                                                                    ",
"                                                                                    ",
"        XX                                                                          ",
"        XX                                                                          ",
"        XX                                     XX                                   ",
"        XX                                     XX                                   ",
"        XX                                     XX                                   ",
"        XX                                     XX                                   ",
"        XX                                     XX                                   ",
"                                               XX                                   ",
"                                               XX                                   ",
"                                                                                    ",
"        XX                                                     XX                   ",
"        XX                                                     XX                   ",
"        XX                                                     XX                   ",
"        XX                                                     XX                   ",
"        XX                                                     XX                   ",
"        XX                                                     XX                   ",
"        XX                                                     XX                   ",
"                                                                       XX           ",
"                                                                       XX           ",
"        XX                                                             XX           ",
"       XXXX                                                            XX           ",
"       XXXX                                                            XX           ",
"   XXXXXXXXXXXX                                                        XX           ",
"  XXXXXXXXXXXXXX                                                       XX           ",
"  XXXXXXXXXXXXXX                                                                    ",
"  XXXXXXXXXXXXXX                                                                    ",
"                                                                                    ",
};
