/* XPM */
static char *foo[] = {
"84 48 2 1",
"X c black",
"  c white",
"                                                                  XXXXXX            ",
"                                                                XXXXXXXXXX          ",
"                                                               XXXXXXXXXXXX         ",
"                                                              XX XX XX XX XX        ",
"                                                             XXXXXXXXXXXXXXXX       ",
"                                                               XXX  XX  XXX         ",
"                                                                X        X          ",
"                                                                                    ",
"                 XX                  XX                                             ",
"                XXXX                XXXX                                            ",
"               XXXXXX              XXXXXX                                           ",
"              XX XX XX            XX XX XX                                          ",
"        XX    XXXXXXXX            XXXXXXXX                                          ",
"        XX     X XX X              X XX X                                           ",
"        XX    X      X            X      X                                          ",
"        XX     X    X              X   XX                                           ",
"        XX                             XX                                           ",
"        XX                             XX                                           ",
"        XX                             XX                                           ",
"                                       XX                                           ",
"                                       XX                                           ",
"                                       XX                                           ",
"        XX                                             XX                           ",
"        XX                                             XX                           ",
"        XX                                             XX                           ",
"        XX                                             XX                           ",
"        XX                                             XX                           ",
"        XX                                             XX                           ",
"        XX                                             XX                           ",
"                                                                                    ",
"                                                                       XX           ",
"                                                                       XX           ",
"                                                                       XX           ",
"                                                                       XX           ",
"                                                                       XX           ",
"                                                                       XX           ",
"                               XX                                      XX           ",
"                               XX                                                   ",
"                               XX                                                   ",
"                               XX                                                   ",
"        XX                     XX                                                   ",
"       XXXX                    XX                                                   ",
"       XXXX                    XX                                                   ",
"   XXXXXXXXXXXX                                                                     ",
"  XXXXXXXXXXXXXX                                                                    ",
"  XXXXXXXXXXXXXX                                                                    ",
"  XXXXXXXXXXXXXX                                                                    ",
"                                                                                    ",
};
