/* XPM */
static char *foo[] = {
"84 48 2 1",
"X c black",
"  c white",
"                                                                                    ",
"                                                                                    ",
"                                                                                    ",
"                                                                                    ",
"                                                                                    ",
"                                                                                    ",
"                                                                                    ",
"                                                                                    ",
"               XX                  XX                  XX                           ",
"              XXXX                XXXX                XXXX                          ",
"             XXXXXX              XXXXXX              XXXXXX                         ",
"        XX  XX XX XX            XX XX XX            XX XX XX                        ",
"        XX  XXXXXXXX            XXXXXXXX            XXXXXXXX                        ",
"        XX   X    X              X    X              X    X                         ",
"        XX  X XXXX X            X XXXX X            X XXXX X                        ",
"        XX X X    X X          X X    X X          X X    X X                       ",
"        XX                                                                          ",
"        XX                                                                          ",
"                                                                                    ",
"                                                                                    ",
"                                                                                    ",
"        XX                                                                          ",
"        XX                                                             XX           ",
"        XX                                                             XX           ",
"        XX                                                             XX           ",
"        XX                                                             XX           ",
"        XX                                                             XX           ",
"        XX                                                             XX           ",
"                               XX                                      XX           ",
"                               XX                                                   ",
"                               XX                                                   ",
"        XX                     XX                                                   ",
"        XX                     XX                                                   ",
"        XX                     XX                                                   ",
"        XX                     XX                                                   ",
"        XX                                                                          ",
"        XX                     XX                                                   ",
"        XX                     XX                                                   ",
"                               XX                                                   ",
"                               XX                                                   ",
"        XX                     XX                                                   ",
"       XXXX                                                                         ",
"       XXXX                                                                         ",
"   XXXXXXXXXXXX                                                                     ",
"  XXXXXXXXXXXXXX                                                                    ",
"  XXXXXXXXXXXXXX                                                                    ",
"  XXXXXXXXXXXXXX                                                                    ",
"                                                                                    ",
};
