/* XPM */
static char *foo[] = {
"84 48 2 1",
"X c black",
"  c white",
"                             XXXXXX                                                 ",
"                           XXXXXXXXXX                                               ",
"                          XXXXXXXXXXXX                                              ",
"                         XX XX XX XX XX                                             ",
"                        XXXXXXXXXXXXXXXX                                            ",
"                          XXX  XX  XXX                                              ",
"                           X        X                                               ",
"                                                                                    ",
"                                                                                    ",
"                                                                                    ",
"                 XX                                                                 ",
"                XXXX                                                                ",
"               XXXXXX                                                               ",
"              XX XX XX                                                              ",
"              XXXXXXXX                                                              ",
"        XX     X XX X                                                               ",
"        XX    X      X                                                              ",
"        XX     X    X                                                               ",
"        XX                                                                          ",
"        XX                                                                          ",
"        XX                                                                          ",
"        XX                                                                          ",
"                                                                                    ",
"                               XX                                                   ",
"                               XX                                                   ",
"        XX                     XX                                                   ",
"        XX                     XX                                                   ",
"        XX                     XX                                                   ",
"        XX                     XX                                                   ",
"        XX                     XX              XX                                   ",
"        XX                                     XX                                   ",
"        XX                                     XX                                   ",
"                                               XX                                   ",
"                                               XX                                   ",
"                                               XX                                   ",
"                                               XX                                   ",
"                                                                                    ",
"                                                               XX                   ",
"                                                               XX                   ",
"                                                               XX                   ",
"        XX                                                     XX                   ",
"       XXXX                                                    XX                   ",
"       XXXX                                                    XX                   ",
"   XXXXXXXXXXXX                                                XX                   ",
"  XXXXXXXXXXXXXX                                                                    ",
"  XXXXXXXXXXXXXX                                                                    ",
"  XXXXXXXXXXXXXX                                                                    ",
"                                                                                    ",
};
