/* XPM */
static char *foo[] = {
"84 48 2 1",
"X c black",
"  c white",
"                                           XXXXXX                                   ",
"                                         XXXXXXXXXX                                 ",
"                                        XXXXXXXXXXXX                                ",
"                                       XX XX XX XX XX                               ",
"                                      XXXXXXXXXXXXXXXX                              ",
"                                        XXX  XX  XXX                                ",
"                                         X        X                                 ",
"                                                                                    ",
"                                                                                    ",
"        XX                                                                          ",
"        XX                 XX                  XX                                   ",
"        XX                XXXX                XXXX                                  ",
"        XX               XXXXXX              XXXXXX                                 ",
"        XX              XX XX XX            XX XX XX                                ",
"        XX              XXXXXXXX            XXXXXXXX                                ",
"        XX               X    X              X    X                                 ",
"                        X XXXX X            X XXXX X                                ",
"                       X X    X X          X X    X X                               ",
"                                                                                    ",
"        XX                                                                          ",
"        XX                                                                          ",
"        XX                                                                          ",
"        XX                                                                          ",
"        XX                                                                          ",
"        XX                                                     XX                   ",
"        XX                                                     XX                   ",
"                                                               XX                   ",
"                                                               XX                   ",
"                                                               XX                   ",
"        XX                                                     XX                   ",
"        XX                                                     XX                   ",
"        XX                                                             XX           ",
"        XX                                                             XX           ",
"        XX                                                             XX           ",
"        XX                                                             XX           ",
"        XX                                                             XX           ",
"                                                                       XX           ",
"                                                                       XX           ",
"                                                                                    ",
"                                                       XX                           ",
"        XX                                             XX                           ",
"       XXXX                                            XX                           ",
"       XXXX                                            XX                           ",
"   XXXXXXXXXXXX                                        XX                           ",
"  XXXXXXXXXXXXXX                                       XX                           ",
"  XXXXXXXXXXXXXX                                       XX                           ",
"  XXXXXXXXXXXXXX                                                                    ",
"                                                                                    ",
};
