/* XPM */
static char *foo[] = {
"84 48 2 1",
"X c black",
"  c white",
"                                                                                    ",
"                                                                                    ",
"                                                                                    ",
"                                                                                    ",
"                                                                                    ",
"                                                                                    ",
"                                                                                    ",
"                                                                                    ",
"                           XX                  XX                                   ",
"                          XXXX                XXXX                                  ",
"                         XXXXXX              XXXXXX                                 ",
"                        XX XX XX            XX XX XX                                ",
"                        XXXXXXXX            XXXXXXXX                                ",
"                         X    X              X    X                                 ",
"                        X XXXX X            X XXXX X                                ",
"                       X X    X X          X X    X X                               ",
"                                                                                    ",
"        XX                                                                          ",
"        XX                                                                          ",
"        XX                                                                          ",
"        XX                                                                          ",
"        XX                                                                          ",
"        XX                                                                          ",
"        XX                                                                          ",
"                                                                                    ",
"                                                                                    ",
"                                                                                    ",
"                                                                                    ",
"        XX                                                                          ",
"        XX                                                                          ",
"        XX                                                                          ",
"        XX                                                                          ",
"        XX                                                                          ",
"        XX                                                                          ",
"        XX                                                                          ",
"                                                                                    ",
"                                                                                    ",
"                                                                                    ",
"                                                                                    ",
"                                                                                    ",
"        XX                                                         XX               ",
"       XXXX                                                        XX               ",
"       XXXX                                                        XX               ",
"   XXXXXXXXXXXX                                                    XX               ",
"  XXXXXXXXXXXXXX                                                   XX               ",
"  XXXXXXXXXXXXXX                                                   XX               ",
"  XXXXXXXXXXXXXX                                                   XX               ",
"                                                                                    ",
};
