/* XPM */
static char *foo[] = {
"84 48 2 1",
"X c black",
"  c white",
"                                                                                    ",
"                                                                                    ",
"                                                                                    ",
"                                                                                    ",
"                                                                                    ",
"                                                                                    ",
"                                                                                    ",
"                                                                                    ",
"                                                                                    ",
"           XX                                      XX                  XX           ",
"          XXXX                                    XXXX                XXXX          ",
"         XXXXXX                                  XXXXXX              XXXXXX         ",
"        XX XX XX                                XX XX XX            XX XX XX        ",
"        XXXXXXXX                                XXXXXXXX            XXXXXXXX        ",
"         X XX X                                  X XX X              X XX X         ",
"        X      X                       XX       X      X            X      X        ",
"         X    X                        XX             X              X    X         ",
"                                       XX        XX                                 ",
"                                       XX        XX                                 ",
"                                       XX        XX                                 ",
"                                       XX        XX                                 ",
"                                       XX        XX                                 ",
"                                                 XX                                 ",
"                                                 XX                                 ",
"                                                                                    ",
"                                       XX        XX                                 ",
"                                       XX        XX                                 ",
"                                       XX        XX                                 ",
"                                       XX        XX                                 ",
"                                       XX        XX                                 ",
"                                       XX                                           ",
"                                       XX        XX                                 ",
"                                                 XX                                 ",
"                                                 XX                                 ",
"                                                 XX                                 ",
"                                                 XX                                 ",
"                                                                                    ",
"                                                                                    ",
"                                                                                    ",
"                                                                                    ",
"                                       XX                                           ",
"                                      XXXX                                          ",
"                                      XXXX                                          ",
"                                  XXXXXXXXXXXX                                      ",
"                                 XXXXXXXXXXXXXX                                     ",
"                                 XXXXXXXXXXXXXX                                     ",
"                                 XXXXXXXXXXXXXX                                     ",
"                                                                                    ",
};
