/* XPM */
static char *foo[] = {
"84 48 2 1",
"X c black",
"  c white",
"                                                             XXXXXX                 ",
"                                                           XXXXXXXXXX               ",
"                                                          XXXXXXXXXXXX              ",
"                                                         XX XX XX XX XX             ",
"                                                        XXXXXXXXXXXXXXXX            ",
"                                                          XXX  XX  XXX              ",
"                                                           X        X               ",
"                                                                                    ",
"                                       XX                                           ",
"                                       XX                                           ",
"                                       XX                                           ",
"                                       XX                                           ",
"                                       XX                                           ",
"               XX                      XX              XX                  XX       ",
"              XXXX                     XX             XXXX                XXXX      ",
"             XXXXXX                                  XXXXXX              XXXXXX     ",
"            XX XX XX                                XX XX XX            XX XX XX    ",
"            XXXXXXXX                   XX           XXXXXXXX            XXXXXXXX    ",
"             X XX X                    XX            X XX X              X XX X     ",
"            X      X                   XX           X      X            X      X    ",
"             X    X                    XX            X    X              X    X     ",
"                                       XX                                           ",
"                                       XX                                           ",
"                                       XX        XX                                 ",
"                                                 XX                                 ",
"                                                 XX                                 ",
"                                                 XX                                 ",
"                                                                                    ",
"                                       XX        XX                                 ",
"                                       XX        XX                                 ",
"                                       XX        XX                                 ",
"                                       XX        XX                                 ",
"                                       XX        XX                                 ",
"                                       XX        XX                                 ",
"                                       XX        XX                                 ",
"                                                                                    ",
"                                                 XX                                 ",
"                                                 XX                                 ",
"                                                 XX                                 ",
"                                                 XX                                 ",
"                                       XX        XX                                 ",
"                                      XXXX                                          ",
"                                      XXXX       XX                                 ",
"                                  XXXXXXXXXXXX   XX                                 ",
"                                 XXXXXXXXXXXXXX  XX                                 ",
"                                 XXXXXXXXXXXXXX  XX                                 ",
"                                 XXXXXXXXXXXXXX  XX                                 ",
"                                                                                    ",
};
