/* XPM */
static char *foo[] = {
"84 48 2 1",
"X c black",
"  c white",
"                                                          XXXXXX                    ",
"                                                        XXXXXXXXXX                  ",
"                                                       XXXXXXXXXXXX                 ",
"                                                      XX XX XX XX XX                ",
"                                                     XXXXXXXXXXXXXXXX               ",
"                                       XX              XXX  XX  XXX                 ",
"                                       XX               X        X                  ",
"                                       XX                                           ",
"                                       XX                                           ",
"                                       XX                                           ",
"                                       XX                                           ",
"                                       XX                                           ",
"                                                                                    ",
"                                                                                    ",
"         XX                            XX        XX                  XX             ",
"        XXXX                           XX       XXXX                XXXX            ",
"       XXXXXX                          XX      XXXXXX              XXXXXX           ",
"      XX XX XX                         XX     XX XX XX            XX XX XX          ",
"      XXXXXXXX                         XX     XXXXXXXX            XXXXXXXX          ",
"       X    X                          XX      X    X              X    X           ",
"      X XXXX X                         XX     X XXXX X            X XXXX X          ",
"     X X    X X                              X X    X X          X X    X X         ",
"                                                                                    ",
"                                                                                    ",
"                                                                                    ",
"                                       XX                                           ",
"                                       XX                            XX             ",
"                                       XX                            XX             ",
"                                       XX                            XX             ",
"                                       XX                                           ",
"                                       XX                            XX             ",
"                                       XX                            XX             ",
"                                                                     XX             ",
"                                                                     XX             ",
"                                                                     XX             ",
"                                                                     XX             ",
"                                                                     XX             ",
"                                                                                    ",
"                                                                     XX             ",
"                                                                     XX             ",
"                                       XX                            XX             ",
"                                      XXXX                           XX             ",
"                                      XXXX                           XX             ",
"                                  XXXXXXXXXXXX                                      ",
"                                 XXXXXXXXXXXXXX                                     ",
"                                 XXXXXXXXXXXXXX                                     ",
"                                 XXXXXXXXXXXXXX                                     ",
"                                                                                    ",
};
