/* XPM */
static char *foo[] = {
"84 48 2 1",
"X c black",
"  c white",
"                                                                                    ",
"                                                                                    ",
"                                                                                    ",
"                                                                                    ",
"                                                                                    ",
"                                                                                    ",
"                                                                                    ",
"                                                                                    ",
"                                       XX                                           ",
"                                       XX                                           ",
"                                       XX                                           ",
"         XX                            XX        XX                  XX             ",
"        XXXX                           XX       XXXX                XXXX            ",
"       XXXXXX                          XX      XXXXXX              XXXXXX           ",
"      XX XX XX                         XX     XX XX XX            XX XX XX          ",
"      XXXXXXXX                                XXXXXXXX            X  XXXXX          ",
"       X    X                                  X    X              XX   X           ",
"      X XXXX X                                X XXXX X            XXXXXX X          ",
"     X X    X X                        XX    X X    X X          X XX   X X         ",
"                                       XX                          XX               ",
"                                       XX                          XX               ",
"                                       XX                          XX               ",
"                                       XX                          XX               ",
"                                       XX                                           ",
"                                       XX                          XX               ",
"                                                                   XX               ",
"                                                                   XX               ",
"                                                                   XX               ",
"                           XX          XX                          XX               ",
"                           XX          XX                                           ",
"                           XX          XX                                           ",
"                           XX          XX                                           ",
"                           XX          XX                                           ",
"                           XX          XX                                           ",
"                           XX          XX                                           ",
"                                                                                    ",
"                           XX                                                       ",
"                           XX                                                       ",
"                           XX                                                       ",
"                           XX                                                       ",
"                           XX          XX                                           ",
"                                      XXXX                                          ",
"                                      XXXX                                          ",
"                                  XXXXXXXXXXXX                                      ",
"                                 XXXXXXXXXXXXXX                                     ",
"                                 XXXXXXXXXXXXXX                                     ",
"                                 XXXXXXXXXXXXXX                                     ",
"                                                                                    ",
};
