/* XPM */
static char *foo[] = {
"84 48 2 1",
"X c black",
"  c white",
"                                                                                    ",
"                                                                                    ",
"                                                                                    ",
"                                                                                    ",
"                                                                                    ",
"                                                                                    ",
"                                                                                    ",
"                                                                                    ",
"                                                                                    ",
"                                       XX                                           ",
"       XX                              XX      XX                  XX               ",
"      XXXX                             XX     XXXX                XXXX              ",
"     XXXXXX                            XX    XXXXXX              XXXXXX             ",
"    XX XX XX                           XX   XX XX XX            XX XX XX            ",
"    XXXXXXXX                           XX   XXXXXXXX            XXXXXXXX            ",
"     X XX X                            XX    X XX X              X XX X             ",
"    X      X                                X      X            X      X            ",
"     X    X                                  X   XX              X    X             ",
"                                                 XX                                 ",
"                                       XX        XX                                 ",
"                                       XX        XX                                 ",
"                                       XX        XX                                 ",
"                                       XX        XX                                 ",
"                                       XX        XX                                 ",
"                                       XX                                           ",
"                                       XX        XX                                 ",
"                                                 XX                                 ",
"                                                 XX                                 ",
"                                                 XX                                 ",
"                                       XX        XX                                 ",
"                                       XX                                           ",
"                                       XX        XX                                 ",
"                                       XX        XX                                 ",
"                                       XX        XX                                 ",
"                                       XX        XX                                 ",
"                                       XX        XX                                 ",
"                                                                                    ",
"                                                 XX                                 ",
"                                                 XX                                 ",
"                                                 XX                                 ",
"                                       XX        XX                                 ",
"                                      XXXX       XX                                 ",
"                                      XXXX                                          ",
"                                  XXXXXXXXXXXX                                      ",
"                                 XXXXXXXXXXXXXX                                     ",
"                                 XXXXXXXXXXXXXX                                     ",
"                                 XXXXXXXXXXXXXX                                     ",
"                                                                                    ",
};
