/* XPM */
static char *foo[] = {
"84 48 2 1",
"X c black",
"  c white",
"                                                       XXXXXX                       ",
"                                                     XXXXXXXXXX                     ",
"                                                    XXXXXXXXXXXX                    ",
"                                                   XX XX XX XX XX                   ",
"                                                  XXXXXXXXXXXXXXXX                  ",
"             XX                  XX                 XXX  XX  XXX         XX         ",
"            XXXX                XXXX                 X        X         XXXX        ",
"           XXXXXX              XXXXXX              XXXXXX              XXXXXX       ",
"          XX XX XX            XX XX XX            XX XX XX            XX XX XX      ",
"          XXXXXXXX            XXXXXXXX            XXXXXXXX            XXXXXXXX      ",
"           X    X              X    X              X    X              X    X       ",
"          X XXXX X            X XXXX X            X XXXX X            X XXXX X      ",
"         X X    X X          X X    X X          X X    X X          X X    X X     ",
"                                                                                    ",
"                                                                                    ",
"           X   X                XXXX                XXXX                XXXX        ",
"        X   X X   X          XXXXXXXXXX          XXXXXXXXXX          XXXXXXXXXX     ",
"         X       X          XXXXXXXXXXXX        XXXXXXXXXXXX        XXXXXXXXXXXX    ",
"          X     X           XXX  XX  XXX        XXX  XX  XXX        XXX  XX  XXX    ",
"       XX         XX        XXXXXXXXXXXX        XXXXXXXXXXXX        XXXXXXXXXXXX    ",
"          X     X             XXX  XXX            XXX  XXX            XXX  XXX      ",
"        XX  X X  X           XX  XX  XX          XX  XX  XX          XX  XX  XX     ",
"        XX X   X  X           XX    XX            XX    XX            XX    XX      ",
"        XX                                                                          ",
"        XX                                                                          ",
"        XX                                                                          ",
"        XX                                                                          ",
"        XX                                                                          ",
"                                                                                    ",
"                           XX                                                       ",
"        XX                 XX                                                       ",
"        XX                 XX                                                       ",
"        XX                 XX                                                       ",
"        XX                 XX                                                       ",
"        XX                 XX                                                       ",
"        XX                 XX                                                       ",
"        XX                                                                          ",
"                                                                                    ",
"                                                                                    ",
"                                                                                    ",
"        XX                                                                          ",
"       XXXX                                                                         ",
"       XXXX                                                                         ",
"   XXXXXXXXXXXX                                                                     ",
"  XXXXXXXXXXXXXX                                                                    ",
"  XXXXXXXXXXXXXX                                                                    ",
"  XXXXXXXXXXXXXX                                                                    ",
"                                                                                    ",
};
