/* XPM */
static char *foo[] = {
"84 48 2 1",
"X c black",
"  c white",
"                                                       XXXXXX                       ",
"        XX                                           XXXXXXXXXX                     ",
"        XX                                          XXXXXXXXXXXX                    ",
"        XX                                         XX XX XX XX XX                   ",
"        XX                                        XXXXXXXXXXXXXXXX                  ",
"        XX                                          XXX  XX  XXX                    ",
"        XX                                           X        X                     ",
"        XX                                                                          ",
"                                                                                    ",
"                                                                                    ",
"                                                                                    ",
"                                                                                    ",
"                                                                                    ",
"                                                                                    ",
"                                                                                    ",
"           XX                  XX                  XX                  XX           ",
"          XXXX                XXXX                XXXX                XXXX          ",
"         XXXXXX              XXXXXX              XXXXXX              XXXXXX         ",
"        XX XX XX            XX XX XX            XX XX XX            XX XX XX        ",
"        XXXXXXXX            XXXXXXXX            XXXXXXXX            XXXXXXXX        ",
"              X              X    X              X    X              X    X         ",
"        XXXXXX X            X XXXX X            X XXXX X            X XXXX X        ",
"       XXX    X X          X X    X X          X X    X X          X X    X X       ",
"        XX                                                                          ",
"        XX                                                                          ",
"        XX                    XXXX                XXXX                XXXX          ",
"        XX                 XXXXXXXXXX          XXXXXXXXXX          XXXXXXXXXX       ",
"        XX                XXXXXXXXXXXX        XXXXXXXXXXXX        XXXXXXXXXXXX      ",
"                          XXX  XX  XXX        XXX  XX  XXX        XXX  XX  XXX      ",
"                          XXXXXXXXXXXX        XXXXXXXXXXXX        XXXXXXXXXXXX      ",
"                            XXX  XXX            XXX  XXX            XXX  XXX        ",
"        XX                 XX  XX  XX          XX  XX  XX          XX  XX  XX       ",
"        XX                  XX    XX            XX    XX            XX    XX        ",
"        XX                                                                          ",
"        XX                                         XX                               ",
"        XX                                         XX                               ",
"        XX                                         XX                               ",
"        XX                                         XX                               ",
"                                                   XX                               ",
"                               XX                  XX                               ",
"        XX                     XX                  XX                               ",
"       XXXX                    XX                                                   ",
"       XXXX                    XX                                                   ",
"   XXXXXXXXXXXX                XX                                                   ",
"  XXXXXXXXXXXXXX               XX                                                   ",
"  XXXXXXXXXXXXXX               XX                                                   ",
"  XXXXXXXXXXXXXX                                                                    ",
"                                                                                    ",
};
