/* XPM */
static char *foo[] = {
"84 48 2 1",
"X c black",
"  c white",
"                                                                  XXXXXX            ",
"                                                                XXXXXXXXXX          ",
"       XX                  XX                  XX              XXXXXXXXXXXX         ",
"      XXXX                XXXX                XXXX            XX XX XX XX XX        ",
"     XXXXXX              XXXXXX              XXXXXX          XXXXXXXXXXXXXXXX       ",
"    XX XX XX            XX XX XX            XX XX XX           XXX  XX  XXX         ",
"    XXXXXXXX            XXXXXXXX            XXXXXXXX            X        X          ",
"     X XX X              X XX X              X XX X              X XX X             ",
"    X      X            X      X            X      X            X      X            ",
"     X    X              X    X              X    X              X    X             ",
"                                                                                    ",
"                                                                                    ",
"      XXXX                XXXX                XXXX                XXXX              ",
"   XXXXXXXXXX          XXXXXXXXXX          XXXXXXXXXX          XXXXXXXXXX           ",
"  XXXXXXXXXXXX        XXXXXXXXXXXX        XXXXXXXXXXXX        XXXXXXXXXXXX          ",
"  XXX  XX  XXX        XXX  XX  XXX        XXX  XX  XXX        XXX  XX  XXX          ",
"  XXXXXXXXXXXX        XXXXXXXXXXXX        XXXXXXXXXXXX        XXXXXXXXXXXX          ",
"    XXX  XXX            XXX  XXX            XXX  XXX            XXX  XXX            ",
"   XX  XX  XX          XX  XX  XX          XX  XX  XX          XX  XX  XX           ",
"    XX    XX            XX XX XX            XX    XX            XX    XX            ",
"                           XX                                                       ",
"                           XX                                                       ",
"                           XX                                                       ",
"                           XX                                                       ",
"                           XX                                                       ",
"                                                                                    ",
"                                                                                    ",
"                                                                                    ",
"                                                                                    ",
"                                                                                    ",
"                                                                                    ",
"                                                                                    ",
"        XX                                                                          ",
"        XX                                                                          ",
"        XX                                                                          ",
"        XX                                                                          ",
"        XX                                                                          ",
"        XX                                                                          ",
"        XX                                                                          ",
"                                                                                    ",
"        XX                                                                          ",
"       XXXX                                                                         ",
"       XXXX                                                                         ",
"   XXXXXXXXXXXX                                                                     ",
"  XXXXXXXXXXXXXX                                                                    ",
"  XXXXXXXXXXXXXX                                                                    ",
"  XXXXXXXXXXXXXX                                                                    ",
"                                                                                    ",
};
