/* XPM */
static char *foo[] = {
"84 48 2 1",
"X c black",
"  c white",
"                                XXXXXX                                              ",
"                              XXXXXXXXXX                                            ",
"                             XXXXXXXXXXXX                                           ",
"                            XX XX XX XX XX                                          ",
"                           XXXXXXXXXXXXXXXX                                         ",
"                             XXX  XX  XXX                                           ",
"                              X        X                                            ",
"                                                                                    ",
"                                                                                    ",
"                                                                                    ",
"        XX                                                                          ",
"        XX                                                                          ",
"        XX                                                                          ",
"        XX                                                                          ",
"        XX                                                                          ",
"        XX                                                                          ",
"        XX                                                                          ",
"                                                                                    ",
"                                                                                    ",
"                                                                                    ",
"        XX                                                                          ",
"        XXX                  XX                  XX                  XX             ",
"        XXXX                XXXX                XXXX                XXXX            ",
"       XXXXXX              XXXXXX              XXXXXX              XXXXXX           ",
"      XXXXX XX            XX XX XX            XX XX XX            XX XX XX          ",
"      XXXXXXXX            XXXXXXXX            XXXXXXXX            XXXXXXXX          ",
"       XXX  X              X    X              X    X              X    X           ",
"      X   XX X            X XXXX X            X XXXX X            X XXXX X          ",
"     X XXX    X          X X    X X          X X    X X          X X    X X         ",
"        XX XX                                                                       ",
"        XX XX                                                                       ",
"        XX XX               XXXX                XXXX                XXXX            ",
"        XX XX            XXXXXXXXXX          XXXXXXXXXX          XXXXXXXXXX         ",
"        XX XX           XXXXXXXXXXXX        XXXXXXXXXXXX        XXXXXXXXXXXX        ",
"        XX XX           XXX  XX  XXX        XXX  XX  XXX        XXX  XX  XXX        ",
"           XX           XXXXXXXXXXXX        XXXXXXXXXXXX        XXXXXXXXXXXX        ",
"                          XXX  XXX            XXX  XXX            XXX  XXX          ",
"                         XX  XX  XX          XX  XX  XX          XX  XX  XX         ",
"           XX             XX    XX            XX    XX            XX    XX          ",
"           XX                                                                       ",
"           XX                                                                       ",
"           XX                                                                       ",
"           XX                                                                       ",
"           XX                                                                       ",
"           XX                                                                       ",
"                                                                                    ",
"                                                                                    ",
"                                                                                    ",
};
