/* XPM */
static char *foo[] = {
"84 48 2 1",
"X c black",
"  c white",
"                                       XXXXXX                                       ",
"                                     XXXXXXXXXX                                     ",
"                                    XXXXXXXXXXXX                                    ",
"                                   XX XX XX XX XX                                   ",
"                                  XXXXXXXXXXXXXXXX                                  ",
"                                    XXX  XX  XXX                                    ",
"        XX                           X        X                                     ",
"        XX                                                                          ",
"        XX                                                                          ",
"        XX                                                                          ",
"        XX                                                                          ",
"        XX                                                                          ",
"        XX                                                                          ",
"                                                                                    ",
"                                                                                    ",
"                                                                                    ",
"        XX                                                                          ",
"        XX                                                                          ",
"        XX                                                                          ",
"        XX XX                  XX                  XX                  XX           ",
"        XXXXXX                XXXX                XXXX                XXXX          ",
"        XXXXXXX              XXXXXX              XXXXXX              XXXXXX         ",
"        XX XX XX            XX XX XX            XX XX XX            XX XX XX        ",
"          XXXXXX            XXXXXXXX            XXXXXXXX            XXXXXXXX        ",
"         X    X              X    X              X    X              X    X         ",
"          XXXX X            X XXXX X            X XXXX X            X XXXX X        ",
"       XXX    X X          X X    X X          X X    X X          X X    X X       ",
"        XX                                                                          ",
"        XX XX                                                                       ",
"        XX XX                 XXXX                XXXX                XXXX          ",
"        XX XX              XXXXXXXXXX          XXXXXXXXXX          XXXXXXXXXX       ",
"        XX                XXXXXXXXXXXX        XXXXXXXXXXXX        XXXXXXXXXXXX      ",
"        XX XX             XXX  XX  XXX        XXX  XX  XXX        XXX  XX  XXX      ",
"           XX             XXXXXXXXXXXX        XXXXXXXXXXXX        XXXXXXXXXXXX      ",
"           XX               XXX  XXX            XXX  XXX            XXX  XXX        ",
"           XX              XX  XX  XX          XX  XX  XX          XX  XX  XX       ",
"           XX               XX    XX            XX    XX            XX    XX        ",
"           XX                                                                       ",
"           XX                                                                       ",
"                                                                                    ",
"           XX                                                                       ",
"           XX                                                                       ",
"           XX                                                                       ",
"           XX                                                                       ",
"           XX                                                                       ",
"                                                                                    ",
"                                                                                    ",
"                                                                                    ",
};
