/* XPM */
static char *foo[] = {
"84 48 2 1",
"X c black",
"  c white",
"                                                              XXXXXX                ",
"                                                            XXXXXXXXXX              ",
"                                                           XXXXXXXXXXXX             ",
"               XX                  XX                     XX XX XX XX XX   XX       ",
"              XXXX                XXXX                X  XXXXXXXXXXXXXXXX  XXX      ",
"             XXXXXX              XXXXXX              XX    XXX  XX  XXX    XXXX     ",
"            XX XX XX            XX XX XX            XX      X        X     XX XX    ",
"            XXXXXXXX            XXXXXXXX            XXXXXXXX            XXXXXXXX    ",
"             X    X              X    X              X    X              X    X     ",
"            X XXXX X            X XXXX X            X XXXX X            X XXXX X    ",
"           X X    X X          X X    X X          X X    X X          X X    X X   ",
"                                                                                    ",
"                                                                                    ",
"              XXXX                XXXX                XXXX                XXXX      ",
"           XXXXXXXXXX          XXXXXXXXXX          XXXXXXXXXX          XXXXXXXXXX   ",
"          XXXXXXXXXXXX        XXXXXXXXXXXX        XXXXXXXXXXXX        XXXXXXXXXXXX  ",
"          XXX  XX  XXX        XXX  XX  XXX        XXX  XX  XXX        XXX  XX  XXX  ",
"          XXXXXXXXXXXX        XXXXXXXXXXXX        XXXXXXXXXXXX        XXXXXXXXXXXX  ",
"            XXX  XXX            XXX  XXX            XXX  XXX            XXX  XXX    ",
"           XX  XX  XX          XX  XX  XX          XX  XX  XX          XX  XX  XX   ",
"            XX    XX            XX    XX            XX    XX            XX    XX    ",
"                                                                                    ",
"                           XX                                                       ",
"                           XX                                                       ",
"                           XX                                                       ",
"                           XX                                                       ",
"                           XX                                                       ",
"                           XX                                                       ",
"        XX                 XX                                                       ",
"        XX                                                                          ",
"        XX                                                                          ",
"        XX                                                                          ",
"        XX                                                                          ",
"        XX                                                                          ",
"        XX                                                                          ",
"                                                                                    ",
"                                                                                    ",
"                                                                                    ",
"                                                                                    ",
"                                                                                    ",
"        XX                                                                          ",
"       XXXX                                                                         ",
"       XXXX                                                                         ",
"   XXXXXXXXXXXX                                                                     ",
"  XXXXXXXXXXXXXX                                                                    ",
"  XXXXXXXXXXXXXX                                                                    ",
"  XXXXXXXXXXXXXX                                                                    ",
"                                                                                    ",
};
