/* XPM */
static char *foo[] = {
"84 48 2 1",
"X c black",
"  c white",
"                                                          XXXXXX                    ",
"                                                        XXXXXXXXXX                  ",
"                                                       XXXXXXXXXXXX                 ",
"                                                      XX XX XX XX XX                ",
"        XX                                           XXXXXXXXXXXXXXXX               ",
"        XX                                             XXX  XX  XXX                 ",
"        XX                                              X        X                  ",
"        XX                                                                          ",
"        XX                                                                          ",
"        XX                                                                          ",
"        XX                                                                          ",
"                                                                                    ",
"                                                                                    ",
"                                                                                    ",
"         XX                  XX                  XX                  XX             ",
"        XXXX                XXXX                XXXX                XXXX            ",
"       XXXXXX              XXXXXX              XXXXXX              XXXXXX           ",
"      XX XX XX            XX XX XX            XX XX XX            XX XX XX          ",
"      XXXXXXXX            XXXXXXXX            XXXXXXXX            XXXXXXXX          ",
"       X    X              X    X              X    X              X    X           ",
"      X XXX  X            X XXXX X            X XXXX X            X XXXX X          ",
"     X X   XX X          X X    X X          X X    X X          X X    X X         ",
"           XX                                                                       ",
"           XX                                                                       ",
"        XX XX               XXXX                XXXX                XXXX            ",
"        XX XX            XXXXXXXXXX          XXXXXXXXXX          XXXXXXXXXX         ",
"        XX XX           XXXXXXXXXXXX        XXXXXXXXXXXX        XXXXXXXXXXXX        ",
"        XX XX           XXX  XX  XXX        XXX  XX  XXX        XXX  XX  XXX        ",
"        XX              XXXXXXXXXXXX        XXXXXXXXXXXX        XXXXXXXXXXXX        ",
"        XX                XXX  XXX            XXX  XXX            XXX  XXX          ",
"        XX               XX  XX  XX          XX  XX  XX          XX  XX  XX         ",
"                          XX    XX            XX    XX            XX    XX          ",
"                                                                                    ",
"                                                                                    ",
"                                                                                    ",
"                                                                                    ",
"                                                                       XX           ",
"                                                                       XX           ",
"                                                                       XX           ",
"                                                                       XX           ",
"        XX                                                             XX           ",
"       XXXX                                                            XX           ",
"       XXXX                                                            XX           ",
"   XXXXXXXXXXXX                                                                     ",
"  XXXXXXXXXXXXXX                                                                    ",
"  XXXXXXXXXXXXXX                                                                    ",
"  XXXXXXXXXXXXXX                                                                    ",
"                                                                                    ",
};
