/* XPM */
static char *foo[] = {
"84 48 2 1",
"X c black",
"  c white",
"                                     XXXXXX                                         ",
"                                   XXXXXXXXXX                                       ",
"                                  XXXXXXXXXXXX                                      ",
"                                 XX XX XX XX XX                                     ",
"        XX                      XXXXXXXXXXXXXXXX                                    ",
"        XX                        XXX  XX  XXX                                      ",
"        XX                         X        X                                       ",
"        XX                                                                          ",
"        XX                                                                          ",
"        XX                                                                          ",
"        XX                                                                          ",
"                                                                                    ",
"                                                                                    ",
"                                                                                    ",
"        XX                                                                          ",
"        XX                                                                          ",
"        XX                                                                          ",
"        XX                                                                          ",
"        XX                                                                          ",
"        XX     XX                  XX                  XX                  XX       ",
"        XX    XXXX                XXXX                XXXX                XXXX      ",
"             XXXXXX              XXXXXX              XXXXXX              XXXXXX     ",
"            XX XX XX            XX XX XX            XX XX XX            XX XX XX    ",
"        XX  XXXXXXXX            XXXXXXXX            XXXXXXXX            XXXXXXXX    ",
"        XX   X    X              X    X              X    X              X    X     ",
"        XX  X XXXX X            X XXXX X            X XXXX X            X XXXX X    ",
"        XX X X    X X          X X    X X          X X    X X          X X    X X   ",
"        XX                                                                          ",
"        XX                                                                          ",
"        XX                        XXXX                XXXX                XXXX      ",
"                               XXXXXXXXXX          XXXXXXXXXX          XXXXXXXXXX   ",
"                              XXXXXXXXXXXX        XXXXXXXXXXXX        XXXXXXXXXXXX  ",
"                              XXX  XX  XXX        XXX  XX  XXX        XXX  XX  XXX  ",
"                              XXXXXXXXXXXX        XXXXXXXXXXXX        XXXXXXXXXXXX  ",
"                                XXX  XXX            XXX  XXX            XXX  XXX    ",
"                               XX  XX  XX          XX  XX  XX          XX  XX  XX   ",
"                                XX    XX            XX    XX            XX    XX    ",
"                                                                                    ",
"                                                                                    ",
"                                                                                    ",
"        XX                                         XX                               ",
"       XXXX                                        XX                               ",
"       XXXX                                        XX                               ",
"   XXXXXXXXXXXX                                    XX                               ",
"  XXXXXXXXXXXXXX                                   XX                               ",
"  XXXXXXXXXXXXXX                                   XX                               ",
"  XXXXXXXXXXXXXX                                   XX                               ",
"                                                                                    ",
};
