/* XPM */
static char *foo[] = {
"84 48 2 1",
"X c black",
"  c white",
"                                                            XXXXXX                  ",
"                                                          XXXXXXXXXX                ",
"                                                         XXXXXXXXXXXX               ",
"                                                        XX XX XX XX XX              ",
"                                                       XXXXXXXXXXXXXXXX             ",
"                                                         XXX  XX  XXX               ",
"                                                          X        X                ",
"                                                                                    ",
"                                                                                    ",
"                                                                                    ",
"                                                                                    ",
"                                                                                    ",
"                                                                                    ",
"                                                                                    ",
"             XX                  XX                  XX                  XX         ",
"            XXXX                XXXX                XXXX                XXXX        ",
"        XX XXXXXX              XXXXXX              XXXXXX              XXXXXX       ",
"        XXXX XX XX            XX XX XX            XX XX XX            XX XX XX      ",
"        XXXXXXXXXX            XXXXXXXX            XXXXXXXX            XXXXXXXX      ",
"        XX X    X              X    X              X    X              X    X       ",
"        XXX XXXX X            X XXXX X            X XXXX X            X XXXX X      ",
"        XX X    X X          X X    X X          X X    X X          X X    X X     ",
"        XX                                                                          ",
"                                                                                    ",
"                                XXXX                XXXX                XXXX        ",
"           XX                XXXXXXXXXX          XXXXXXXXXX          XXXXXXXXXX     ",
"        XX XX               XXXXXXXXXXXX        XXXXXXXXXXXX        XXXXXXXXXXXX    ",
"        XX XX               XXX  XX  XXX        XXX  XX  XXX        XXX  XX  XXX    ",
"        XX XX               XXXXXXXXXXXX        XXXXXXXXXXXX        XXXXXXXXXXXX    ",
"        XX XX                 XXX  XXX            XXX  XXX            XXX  XXX      ",
"        XX XX                XX  XX  XX          XX  XX  XX          XX  XX  XX     ",
"        XX XX                 XX    XX            XX    XX            XX    XX      ",
"        XX                                                                          ",
"           XX                                                                       ",
"           XX                                                                       ",
"           XX                                                                       ",
"           XX                                                                       ",
"           XX                                                                       ",
"                                                                                    ",
"                                                                                    ",
"                                                                                    ",
"                                                                                    ",
"                                                                                    ",
"                                                                                    ",
"                                                                                    ",
"                                                                                    ",
"                                                                                    ",
"                                                                                    ",
};
