/* XPM */
static char *foo[] = {
"84 48 2 1",
"X c black",
"  c white",
"                                                                                    ",
"                                                                                    ",
"                                                                                    ",
"                                                                                    ",
"                                                                                    ",
"               XX                  XX                  XX                  XX       ",
"              XXXX                XXXX                XXXX                XXXX      ",
"             XXXXXX              XXXXXX              XXXXXX              XXXXXX     ",
"            XX XX XX            XX XX XX            XX XX XX            XX XX XX    ",
"            XXXXXXXX            XXXXXXXX            XXXXXXXX            XXXXXXXX    ",
"             X    X              X    X              X    X              X    X     ",
"            X XXXX X            X XXXX X            X XXXX X            X XXXX X    ",
"           X X    X X          X X    X X          X X    X X          X X    X X   ",
"                                                                                    ",
"                                                                                    ",
"              XXXX               X   X                XXXX                XXXX      ",
"           XXXXXXXXXX         X   X X   X          XXXXXXXXXX          XXXXXXXXXX   ",
"          XXXXXXXXXXXX         X       X          XXXXXXXXXXXX        XXXXXXXXXXXX  ",
"          XXX  XX  XXX          X     X           XXX  XX  XXX        XXX  XX  XXX  ",
"          XXXXXXXXXXXX       XX         XX        XXXXXXXXXXXX        XXXXXXXXXXXX  ",
"            XXX  XXX            X     X             XXX  XXX            XXX  XXX    ",
"           XX  XX  XX          X  X X  X           XX  XX  XX          XX  XX  XX   ",
"            XX    XX          X  X   X  X           XX    XX            XX    XX    ",
"                                                                                    ",
"                                                                                    ",
"                                                 XX                                 ",
"                                                 XX                                 ",
"                                                 XX                                 ",
"                                                 XX                                 ",
"                                       XX        XX                                 ",
"                                       XX        XX                                 ",
"                                       XX        XX                                 ",
"                                       XX                                           ",
"                                       XX                                           ",
"                                       XX                                           ",
"                                       XX                                           ",
"                                                                                    ",
"                                                                                    ",
"                                                                                    ",
"                                                                                    ",
"                                       XX                                           ",
"                                      XXXX                                          ",
"                                      XXXX                                          ",
"                                  XXXXXXXXXXXX                                      ",
"                                 XXXXXXXXXXXXXX                                     ",
"                                 XXXXXXXXXXXXXX                                     ",
"                                 XXXXXXXXXXXXXX                                     ",
"                                                                                    ",
};
