/* XPM */
static char *foo[] = {
"84 48 2 1",
"X c black",
"  c white",
"                                                                                    ",
"                                                                                    ",
"                                                                                    ",
"                                                                                    ",
"                                                                                    ",
"                                                                                    ",
"                                                                                    ",
"                                                                                    ",
"       XX                  XX                  XX                  XX               ",
"      XXXX                XXXX                XXXX                XXXX              ",
"     XXXXXX              XXXXXX              XXXXXX              XXXXXX             ",
"    XX XX XX            XX XX XX            XX XX XX            XX XX XX            ",
"    XXXXXXXX            XXXXXXXX            XXXXXXXX            XXXXXXXX            ",
"     X    X              X    X              X    X              X    X             ",
"    X XXXX X            X XXXX X            X XXXX X            X XXXX X            ",
"   X X    X X          X X    X X          X X    X X          X X    X X           ",
"                                                                                    ",
"                                       XX                                           ",
"      XXXX                             XX     XXXX                XXXX              ",
"   XXXXXXXXXX                          XX  XXXXXXXXXX          XXXXXXXXXX           ",
"  XXXXXXXXXXXX                         XX XXXXXXXXXXXX        XXXXXXXXXXXX          ",
"  XXX  XX  XXX               XX        XX XXX  XX  XXX        XXX  XX  XXX          ",
"  XXXXXXXXXXXX               XX        XX XXXXXXXXXXXX        XXXXXXXXXXXX          ",
"    XXX  XXX                 XX        XX   XXX  XXX            XXX  XXX            ",
"   XX  XX  XX                XX            XX  XX  XX          XX  XX  XX           ",
"    XX    XX                 XX             XX   XXX            XX    XX            ",
"                             XX                  XX                                 ",
"                             XX        XX        XX                                 ",
"                                       XX        XX                                 ",
"                                       XX        XX                                 ",
"                                       XX        XX                                 ",
"                                       XX        XX                                 ",
"                                       XX                                           ",
"                                       XX                                           ",
"                                                                                    ",
"                                                                                    ",
"                                                                                    ",
"                                                                     XX             ",
"                                                                     XX             ",
"                                                                     XX             ",
"                                       XX                            XX             ",
"                                      XXXX                           XX             ",
"                                      XXXX                           XX             ",
"                                  XXXXXXXXXXXX                       XX             ",
"                                 XXXXXXXXXXXXXX                                     ",
"                                 XXXXXXXXXXXXXX                                     ",
"                                 XXXXXXXXXXXXXX                                     ",
"                                                                                    ",
};
