/* XPM */
static char *foo[] = {
"84 48 2 1",
"X c black",
"  c white",
"                                                                                    ",
"                                                                                    ",
"                                                                                    ",
"                                                                                    ",
"                                                                                    ",
"                                                                                    ",
"                                                                                    ",
"                                                                                    ",
"                                                                                    ",
"             XX                  XX                  XX                  XX         ",
"            XXXX                XXXX                XXXX                XXXX        ",
"           XXXXXX              XXXXXX              XXXXXX              XXXXXX       ",
"          XX XX XX            XX XX XX            XX XX XX            XX XX XX      ",
"          XXXXXXXX            XXXXXXXX            XXXXXXXX            XXXXXXXX      ",
"           X    X              X    X  XX          X    X              X    X       ",
"          X XXXX X            X XXXX X XX         X XXXX X            X XXXX X      ",
"         X X    X X          X X    X XXX        X X    X X          X X    X X     ",
"                                       XX                                           ",
"                                       XX                                           ",
"            XXXX                       XX           XXXX                XXXX        ",
"         XXXXXXXXXX                    XX        XXXXXXXXXX          XXXXXXXXXX     ",
"        XXXXXXXXXXXX                            XXXXXXXXXXXX        XXXXXXXXXXXX    ",
"        XXX  XX  XXX                            XXX  XX  XXX        XXX  XX  XXX    ",
"        XXXXXXXXXXXX                            XXXXXXXXXXXX        XXXXXXXXXXXX    ",
"          XXX  XXX                     XX         XXX  XXX            XXX  XXX      ",
"         XX  XX  XX                    XX        XX  XX  XX          XX  XX  XX     ",
"          XX    XX                     XX         XX    XX            XX    XX      ",
"                                       XX                                           ",
"         XX                            XX                                           ",
"         XX                            XX                                           ",
"         XX                            XX                                           ",
"         XX                                                                         ",
"         XX                                                                         ",
"         XX                                                                         ",
"         XX                                                                         ",
"                                                                                    ",
"         XX                                                                         ",
"         XX                                                                         ",
"         XX                                                                         ",
"         XX                                                                         ",
"         XX                            XX                                           ",
"                                      XXXX                                          ",
"         XX                           XXXX                                          ",
"         XX                       XXXXXXXXXXXX                                      ",
"         XX                      XXXXXXXXXXXXXX                                     ",
"         XX                      XXXXXXXXXXXXXX                                     ",
"         XX                      XXXXXXXXXXXXXX                                     ",
"                                                                                    ",
};
