/* XPM */
static char *foo[] = {
"84 48 2 1",
"X c black",
"  c white",
"                                                                 XXXXXX             ",
"                                       XX                      XXXXXXXXXX           ",
"                                       XX                     XXXXXXXXXXXX          ",
"                                       XX                    XX XX XX XX XX         ",
"                                       XX                   XXXXXXXXXXXXXXXX        ",
"                                       XX                     XXX  XX  XXX          ",
"                                       XX                      X        X           ",
"                                       XX                                           ",
"                                                                                    ",
"                                                                                    ",
"                                                                                    ",
"                                       XX                                           ",
"       XX                  XX          XX      XX                  XX               ",
"      XXXX                XXXX         XX     XXXX                XXXX              ",
"     XXXXXX              XXXXXX        XX    XXXXXX              XXXXXX             ",
"    XX XX XX            XX XX XX       XX   XX XX XX            XX XX XX            ",
"    XXXXXXXX            XXXXXXXX       XX   XXXXXXXX            XXXXXXXX            ",
"     X    X              X    X        XX    X    X              X    X             ",
"    X XXXX X            X XXX  X            X XXXX X            X XXXX X            ",
"   X X    X X          X X   XX X          X X    X X          X X    X X           ",
"                             XX                                                     ",
"                             XX        XX                                           ",
"      XXXX                   XX        XX     XXXX                XXXX              ",
"   XXXXXXXXXX                XX        XX  XXXXXXXXXX          XXXXXXXXXX           ",
"  XXXXXXXXXXXX               XX        XX XXXXXXXXXXXX        XXXXXXXXXXXX          ",
"  XXX  XX  XXX               XX        XX XXX  XX  XXX        XXX  XX  XXX          ",
"  XXXXXXXXXXXX                         XX XXXXXXXXXXXX        XXXXXXXXXXXX          ",
"    XXX  XXX                 XX        XX   XXX  XXX            XXX  XXX            ",
"   XX  XX  XX                XX            XX  XX  XX          XX  XX  XX           ",
"    XX    XX                 XX             XX    XX            XX    XX            ",
"                             XX                                                     ",
"                             XX        XX                                           ",
"                                       XX                                           ",
"                                       XX                                           ",
"                                       XX                                           ",
"                                       XX                                           ",
"                             XX        XX                                           ",
"                             XX        XX                                           ",
"                             XX                                                     ",
"                             XX                                                     ",
"                             XX        XX        XX                                 ",
"                             XX       XXXX       XX                                 ",
"                             XX       XXXX       XX                                 ",
"                                  XXXXXXXXXXXX   XX                                 ",
"                                 XXXXXXXXXXXXXX  XX                                 ",
"                                 XXXXXXXXXXXXXX  XX                                 ",
"                                 XXXXXXXXXXXXXX  XX                                 ",
"                                                                                    ",
};
