/* XPM */
static char *foo[] = {
"84 48 2 1",
"X c black",
"  c white",
"                                                                                    ",
"                                                                                    ",
"                                                                                    ",
"                                                                                    ",
"                                                                                    ",
"                                                                                    ",
"                                                                                    ",
"                                                                                    ",
"                                                                                    ",
"                                                                                    ",
"             XX                  XX                  XX                  XX         ",
"            XXXX                XXXX                XXXX                XXXX        ",
"           XXXXXX              XXXXXX  XX          XXXXXX              XXXXXX       ",
"          XX XX XX            XX XX XX XX         XX XX XX            XX XX XX      ",
"          XXXXXXXX            XXXXXXXX XX         XXXXXXXX            XXXXXXXX      ",
"           X    X              X    X  XX          X    X              X    X       ",
"          X XXXX X            X XXXX X XX         X XXXX X            X XXXX X      ",
"         X X    X X          X X    X XXX        X X    X X          X X    X X     ",
"                                       XX                                           ",
"                                                                                    ",
"            XXXX                                    XXXX                XXXX        ",
"         XXXXXXXXXX                              XXXXXXXXXX          XXXXXXXXXX     ",
"        XXXXXXXXXXXX                   XX       XXXXXXXXXXXX        XXXXXXXXXXXX    ",
"        XXX  XX  XXX                   XX       XXX  XX  XXX        XXX  XX  XXX    ",
"        XXXXXXXXXXXX                   XX       XXXXXXXXXXXX        XXXXXXXXXXXX    ",
"          XXX  XXX                     XX         XXX  XXX            XXX  XXX      ",
"         XX  XX  XX                    XX        XX  XX  XX          XX  XX  XX     ",
"          XX    XX                     XX         XX    XX            XX    XX      ",
"                                       XX                                           ",
"         XX                                                                         ",
"         XX                                                                         ",
"         XX                                                                         ",
"         XX                                                                         ",
"         XX                                                                         ",
"         XX                                                                         ",
"         XX                                                                         ",
"                                                                                    ",
"         XX                                                                         ",
"         XX                                                                         ",
"         XX                                                                         ",
"         XX                            XX                                           ",
"         XX                           XXXX                                          ",
"                                      XXXX                                          ",
"                                  XXXXXXXXXXXX                                      ",
"                                 XXXXXXXXXXXXXX                                     ",
"                                 XXXXXXXXXXXXXX                                     ",
"                                 XXXXXXXXXXXXXX                                     ",
"                                                                                    ",
};
