/* XPM */
static char *foo[] = {
"84 48 2 1",
"X c black",
"  c white",
"                                                             XXXXXX                 ",
"                                                           XXXXXXXXXX               ",
"                                                          XXXXXXXXXXXX              ",
"                                                         XX XX XX XX XX             ",
"                                                        XXXXXXXXXXXXXXXX            ",
"                                                          XXX  XX  XXX              ",
"                                                           X        X               ",
"                                       XX                                           ",
"                                       XX                                           ",
"                                       XX                                           ",
"                                       XX                                           ",
"                                       XX                                           ",
"                                       XX                                           ",
"               XX                  XX  XX              XX                  XX       ",
"              XXXX                XXXX                XXXX                XXXX      ",
"             XXXXXX              XXXXXX              XXXXXX              XXXXXX     ",
"            XX XX XX            XX XX XX            XX XX XX            XX XX XX    ",
"            XXXXXXXX            XXXXXXX             XXXXXXXX            XXXXXXXX    ",
"             X    X              X    XXX            X    X              X    X     ",
"            X XXXX X            X XXXX XX           X XXXX X            X XXXX X    ",
"           X X    X X          X X    XXX          X X    X X          X X    X X   ",
"                                       XX                                           ",
"                                       XX                                           ",
"              XXXX           XX        XX             XXXX                XXXX      ",
"           XXXXXXXXXX        XX        XX          XXXXXXXXXX          XXXXXXXXXX   ",
"          XXXXXXXXXXXX       XX                   XXXXXXXXXXXX        XXXXXXXXXXXX  ",
"          XXX  XX  XXX       XX                   XXX  XX  XXX        XXX  XX  XXX  ",
"          XXXXXXXXXXXX       XX                   XXXXXXXXXXXX        XXXXXXXXXXXX  ",
"            XXX  XXX         XX        XX           XXX  XXX            XXX  XXX    ",
"           XX  XX  XX        XX        XX          XX  XX  XX          XX  XX  XX   ",
"            XX    XX                   XX           XX    XX            XX    XX    ",
"                             XX        XX                                           ",
"                             XX        XX                                           ",
"                                       XX                                           ",
"                             XX        XX                                           ",
"                             XX                                                     ",
"                             XX                                                     ",
"                             XX                                                     ",
"                             XX                                                     ",
"                             XX                                                     ",
"                             XX        XX                                           ",
"                                      XXXX                                          ",
"                             XX       XXXX                                          ",
"                             XX   XXXXXXXXXXXX                                      ",
"                             XX  XXXXXXXXXXXXXX                                     ",
"                             XX  XXXXXXXXXXXXXX                                     ",
"                             XX  XXXXXXXXXXXXXX                                     ",
"                                                                                    ",
};
