/* XPM */
static char *foo[] = {
"84 48 2 1",
"X c black",
"  c white",
"                                                                      XXXXXX        ",
"                                                                    XXXXXXXXXX      ",
"                                                                   XXXXXXXXXXXX     ",
"                                                                  XX XX XX XX XX    ",
"                                                                 XXXXXXXXXXXXXXXX   ",
"                                                                   XXX  XX  XXX     ",
"         XX                  XX                  XX                 X        X      ",
"        XXXX                XXXX                XXXX                XXXX            ",
"       XXXXXX              XXXXXX              XXXXXX              XXXXXX           ",
"      XX XX XX            XX XX XX            XX XX XX            XX XX XX          ",
"      XXXXXXXX            XXXXXXXX            XXXXXXXX            XXXXXXXX          ",
"       X    X              X    X              X    X              X    X           ",
"      X XXXX X            X XXXX X            X XXXX X            X XXXX X          ",
"     X X    X X          X X    X X          X X    X X          X X    X X         ",
"                                                                                    ",
"                                                                                    ",
"        XXXX                                    XXXX                XXXX            ",
"     XXXXXXXXXX                              XXXXXXXXXX          XXXXXXXXXX         ",
"    XXXXXXXXXXXX                            XXXXXXXXXXXX        XXXXXXXXXXXX        ",
"    XXX  XX  XXX                            XXX  XX  XXX        XXX  XX  XXX        ",
"    XXXXXXXXXXXX                            XXXXXXXXXXXX        XXXXXXXXXXXX        ",
"      XXX  XXX                                XXX  XXX            XXX  XXX          ",
"     XX  XX  XX                              XX  XX  XX          XX  XX  XX         ",
"      XX    XX                                XX    XX            XX    XX          ",
"                                                                                    ",
"                                                                                    ",
"                                       XX                                           ",
"                                       XX                                           ",
"                             XX        XX                                           ",
"                             XX        XX                                           ",
"                             XX        XX                                           ",
"                             XX        XX                                           ",
"                             XX        XX                                           ",
"                             XX                                                     ",
"                             XX                                                     ",
"                                                                                    ",
"                                                                                    ",
"                                                                                    ",
"                                                                                    ",
"                                                                                    ",
"                                       XX                                           ",
"                                      XXXX                                          ",
"                                      XXXX                                          ",
"                                  XXXXXXXXXXXX                                      ",
"                                 XXXXXXXXXXXXXX                                     ",
"                                 XXXXXXXXXXXXXX                                     ",
"                                 XXXXXXXXXXXXXX                                     ",
"                                                                                    ",
};
