/* XPM */
static char *foo[] = {
"84 48 2 1",
"X c black",
"  c white",
"                                                                                    ",
"                                                                                    ",
"                                                                                    ",
"                                                                                    ",
"                                                                                    ",
"                                       XX                                           ",
"                                       XX                                           ",
"                                       XX                                           ",
"                                       XX                                           ",
"                                       XX                                           ",
"                                       XX                                           ",
"                                       XX                                           ",
"                                                                                    ",
"                                                                                    ",
"                                       XX                                           ",
"                                       XX                                           ",
"                                       XX                                           ",
"                                       XX                                           ",
"                                       XX                                           ",
"               XX                  XX  XX              XX                  XX       ",
"              XXXX                XXXX XX             XXXX                XXXX      ",
"             XXXXXX              XXXXXX              XXXXXX              XXXXXX     ",
"            XX XX XX            XX XX X             XX XX XX            XX XX XX    ",
"            XXXXXXXX            XXXXXXXXX           XXXXXXXX            XXXXXXXX    ",
"             X    X              X    XXX            X    X              X    X     ",
"            X XXXX X            X XXXX XX           X XXXX X            X XXXX X    ",
"           X X    X X          X X    XXX          X X    X X          X X    X X   ",
"                                       XX                                           ",
"                                       XX                                           ",
"              XXXX                     XX             XXXX                XXXX      ",
"           XXXXXXXXXX                              XXXXXXXXXX          XXXXXXXXXX   ",
"          XXXXXXXXXXXX                            XXXXXXXXXXXX        XXXXXXXXXXXX  ",
"          XXX  XX  XXX                            XXX  XX  XXX        XXX  XX  XXX  ",
"          XXXXXXXXXXXX                            XXXXXXXXXXXX        XXXXXXXXXXXX  ",
"            XXX  XXX                                XXX  XXX            XXX  XXX    ",
"           XX  XX  XX                              XX  XX  XX          XX  XX  XX   ",
"            XX    XX                                XX    XX            XX    XX    ",
"                                                                                    ",
"                                                                                    ",
"                                                                     XX             ",
"                             XX        XX                            XX             ",
"                             XX       XXXX                           XX             ",
"                             XX       XXXX                           XX             ",
"                             XX   XXXXXXXXXXXX                       XX             ",
"                             XX  XXXXXXXXXXXXXX                      XX             ",
"                             XX  XXXXXXXXXXXXXX                      XX             ",
"                             XX  XXXXXXXXXXXXXX                                     ",
"                                                                                    ",
};
