/* XPM */
static char *foo[] = {
"84 48 2 1",
"X c black",
"  c white",
"                                                                XXXXXX              ",
"                                                              XXXXXXXXXX            ",
"                                                             XXXXXXXXXXXX           ",
"                                                            XX XX XX XX XX          ",
"                                                           XXXXXXXXXXXXXXXX         ",
"               XX                X   X                 XX    XXX  XX  XXX           ",
"              XXXX            X   X X   X             XXX     X        X     X      ",
"             XXXXXX            X       X             XXXXXX              XXXXXX     ",
"            XX XX XX            X     X             XX XX XX            XX XX XX    ",
"            XXXXXXXX         XX         XX          XXXXXXXX            XXXXXXXX    ",
"             X XX X             X     X              X XX X              X XX X     ",
"            X      X           X  X X  X            X      X            X      X    ",
"             X    X           X  X   X  X            X    X              X    X     ",
"                               XX                                                   ",
"                               XX                                                   ",
"                               XX                                                   ",
"                               XX                                                   ",
"                               XX      XX                                           ",
"                               XX      XX                                           ",
"                               XX      XX                                           ",
"                                                                                    ",
"                               XX      XX                                           ",
"                               XX      XX                                           ",
"                               XX      XX                                           ",
"                               XX      XX                                           ",
"                               XX      XX                                           ",
"                                       XX                                           ",
"                                       XX                                           ",
"                                                                                    ",
"                                       XX                                           ",
"                                       XX                                           ",
"                                       XX                                           ",
"                                       XX                                           ",
"                                       XX                                           ",
"                                       XX                                           ",
"                                       XX                                           ",
"                                                                                    ",
"                                                                                    ",
"                                                                                    ",
"                                                                                    ",
"                                       XX                                           ",
"                                      XXXX                                          ",
"                                      XXXX                                          ",
"                                  XXXXXXXXXXXX                                      ",
"                                 XXXXXXXXXXXXXX                                     ",
"                                 XXXXXXXXXXXXXX                                     ",
"                                 XXXXXXXXXXXXXX                                     ",
"                                                                                    ",
};
